<svg id="Capa_1" enable-background="new 0 0 436.67 436.67" height="512" viewBox="0 0 436.67 436.67" width="512" xmlns="http://www.w3.org/2000/svg"><g><path d="m433.003 315.391-39.999-59.998v-80.725c0-96.466-78.201-174.668-174.668-174.668s-174.668 78.202-174.668 174.668v80.725l-39.999 59.998c-6.678 10.053-3.942 23.617 6.112 30.295 3.573 2.373 7.765 3.642 12.054 3.65h109.167c0 48.233 39.101 87.334 87.334 87.334s87.334-39.101 87.334-87.334h109.167c12.069-.021 21.836-9.822 21.815-21.891-.006-4.289-1.276-8.481-3.649-12.054zm-214.667 77.612c-24.104-.031-43.636-19.563-43.667-43.667h87.334c-.031 24.104-19.563 43.636-43.667 43.667zm61.571-87.334h-217.283l21.045-31.556c2.389-3.587 3.665-7.801 3.666-12.111v-87.334c0-72.35 58.651-131.001 131.001-131.001s131.001 58.651 131.001 131.001v87.334c.002 4.31 1.278 8.524 3.668 12.111l21.043 31.556z"/></g></svg>