<svg id="svg1787" height="512" viewBox="0 0 8.4666664 8.4666664" width="512" xmlns="http://www.w3.org/2000/svg" xmlns:svg="http://www.w3.org/2000/svg"><g id="layer1" transform="translate(0 -288.533)"><path id="path10450" d="m11.021484.5c-3.3464125 0-5.4980496 2.83447-5.4980496 5.429688 0 .5796766-.5672812 12.752647-2.8222625 17.820312-.5770728.999919.1443363 2.249638 1.2988281 2.25 2.1033534-.000013 3.2130602 0 5.7753906 0 .3894394 3.08507 3.0352864 5.498047 6.2207034 5.498047 3.451275 0 6.28321-2.829975 6.283203-6.28125 0-1.105884-.623711-2.189728-1.837891-2.216797h-14.3984372c1.4692971-3.812195 2.2956789-12.021164 2.4785156-17 0-1.4109354 1.089057-2.5 2.4999996-2.5h9.957032c1.41095 0 2.5 1.0890268 2.5 2.5 0 .5283515.431314 14.290396 3.222703 19.25.984049 1.790079 3.65613.247103 2.597656-1.5-2.053348-4.692532-2.822313-16.2757023-2.822313-17.8203125 0-2.9396854-2.482567-5.4296875-5.498046-5.4296875zm1.798828 25.5c2.537273.000004 5.641635-.000002 6.359376 0-.347895 1.442778-1.625613 2.501953-3.183594 2.501953-1.557982 0-2.829478-1.059175-3.175782-2.501953z" fill="rgb(0,0,0)" transform="matrix(.265 0 0 .265 0 288.533)" font-variant-ligatures="normal" font-variant-position="normal" font-variant-caps="normal" font-variant-numeric="normal" font-variant-alternates="normal" font-feature-settings="normal" text-indent="0" text-align="start" text-decoration-line="none" text-decoration-style="solid" text-decoration-color="rgb(0,0,0)" text-transform="none" text-orientation="mixed" white-space="normal" shape-padding="0" isolation="auto" mix-blend-mode="normal" solid-color="rgb(0,0,0)" solid-opacity="1" vector-effect="none"/></g></svg>