<svg height="512pt" viewBox="-10 0 512 512.00025" width="512pt" xmlns="http://www.w3.org/2000/svg"><path d="m246 268.226562-140 80.828126v72.117187l140 80.828125 140-80.828125v-72.117187zm0 0" fill="#e2f1a1"/><path d="m386 421.171875v-72.117187l-140 80.828124v72.117188zm0 0" fill="#cbe558"/><path d="m106 421.171875v-72.117187l140 80.828124v72.117188zm0 0" fill="#d8ec84"/><path d="m246 139.113281-140 80.828125v72.117188l140 80.828125 140-80.828125v-72.117188zm0 0" fill="#e2f1a1"/><path d="m386 292.058594v-72.117188l-140 80.828125v72.117188zm0 0" fill="#cbe558"/><path d="m106 292.058594v-72.117188l140 80.828125v72.117188zm0 0" fill="#d8ec84"/><path d="m246 10-140 80.832031v72.113281l140 80.828126 140-80.828126v-72.113281zm0 0" fill="#e2f1a1"/><path d="m386 162.945312v-72.117187l-140 80.832031v72.113282zm0 0" fill="#cbe558"/><path d="m106 162.945312v-72.117187l140 80.832031v72.113282zm0 0" fill="#d8ec84"/><path d="m482 104.496094c0 13.253906-10.746094 24-24 24s-24-10.746094-24-24 10.746094-24 24-24 24 10.746094 24 24zm0 0" fill="#91def5"/><path d="m58 299.480469c0 13.253906-10.746094 24-24 24s-24-10.746094-24-24c0-13.253907 10.746094-24 24-24s24 10.746093 24 24zm0 0" fill="#91def5"/><path d="m391 82.167969-140-80.828125c-3.09375-1.785156-6.90625-1.785156-10 0l-140 80.828125c-3.09375 1.789062-5 5.089843-5 8.660156v72.117187c0 3.570313 1.90625 6.875 5 8.660157l34.359375 19.835937-34.359375 19.84375c-3.09375 1.785156-5 5.085938-5 8.65625v72.117188c0 3.570312 1.90625 6.875 5 8.660156l34.359375 19.835938-34.359375 19.839843c-3.09375 1.785157-5 5.089844-5 8.660157v72.117187c0 3.570313 1.90625 6.875 5 8.660156l140 80.828125c1.546875.894532 3.273438 1.339844 5 1.339844s3.453125-.445312 5-1.339844l140-80.828125c3.09375-1.785156 5-5.089843 5-8.660156v-72.117187c0-3.570313-1.90625-6.875-5-8.660157l-34.363281-19.835937 34.363281-19.839844c3.09375-1.785156 5-5.089844 5-8.660156v-72.117188c0-3.570312-1.90625-6.871094-5-8.65625l-34.359375-19.839844 34.359375-19.839843c3.09375-1.785157 5-5.085938 5-8.660157v-72.113281c0-3.574219-1.90625-6.875-5-8.664062zm-145-60.621094 120 69.285156-120 69.28125-120-69.28125zm-130 86.601563 120 69.285156v49.019531l-120-69.28125zm0 129.113281 120 69.285156v49.019531l-120-69.28125zm0 129.113281 120 69.28125v49.023438l-120-69.28125zm140 118.304688v-49.019532l120-69.285156v49.023438zm110-135.625-120 69.28125-120-69.28125 29.359375-16.953126 85.640625 49.445313c1.546875.894531 3.273438 1.339844 5 1.339844s3.453125-.445313 5-1.339844l85.636719-49.441406zm-110 6.511718v-49.019531l120-69.28125v49.019531zm110-135.625-120 69.285156-120-69.285156 29.359375-16.949218 85.640625 49.441406c1.546875.894531 3.273438 1.339844 5 1.339844s3.453125-.445313 5-1.339844l85.640625-49.441406zm-110 6.515625v-49.023437l120-69.28125v49.019531zm0 0"/><path d="m458 259.890625c-2.628906 0-5.210938 1.0625-7.070312 2.929687-1.859376 1.859376-2.929688 4.429688-2.929688 7.070313 0 2.628906 1.070312 5.210937 2.929688 7.070313 1.859374 1.859374 4.441406 2.929687 7.070312 2.929687s5.210938-1.070313 7.070312-2.929687c1.859376-1.859376 2.929688-4.441407 2.929688-7.070313 0-2.640625-1.070312-5.21875-2.929688-7.070313-1.859374-1.867187-4.441406-2.929687-7.070312-2.929687zm0 0"/><path d="m492 104.496094c0-18.746094-15.25-34-34-34-18.746094 0-34 15.253906-34 34 0 15.269531 10.117188 28.21875 24 32.5v87.890625c0 5.523437 4.476562 10 10 10s10-4.476563 10-10v-87.890625c13.882812-4.28125 24-17.230469 24-32.5zm-34 14c-7.71875 0-14-6.277344-14-14 0-7.71875 6.28125-14 14-14s14 6.28125 14 14c0 7.722656-6.28125 14-14 14zm0 0"/><path d="m34 454.871094c-5.523438 0-10 4.480468-10 10v37.128906c0 5.523438 4.476562 10 10 10s10-4.476562 10-10v-37.128906c0-5.523438-4.476562-10-10-10zm0 0"/><path d="m34 265.480469c-18.746094 0-34 15.253906-34 34 0 15.269531 10.117188 28.21875 24 32.496093v82.949219c0 5.523438 4.476562 10 10 10s10-4.476562 10-10v-82.949219c13.882812-4.28125 24-17.226562 24-32.496093 0-18.746094-15.25-34-34-34zm0 48c-7.71875 0-14-6.277344-14-14 0-7.71875 6.28125-14 14-14s14 6.28125 14 14c0 7.722656-6.28125 14-14 14zm0 0"/></svg>