<?xml version="1.0"?>
<svg xmlns="http://www.w3.org/2000/svg" height="512px" viewBox="0 0 32 32" width="512px"><g><g id="Layer_35" data-name="Layer 35"><path d="m25 26a1 1 0 0 0 1-1v-22a1 1 0 0 0 -1-1h-18a1 1 0 0 0 -1 1v24a3 3 0 0 0 3 3h16a1 1 0 0 0 0-2h-16a1 1 0 0 1 -1-1v-1zm-5-22v5.59l-.29-.29a1 1 0 0 0 -1.41 0l-.3.29v-5.59zm-12 0h8v8a1 1 0 0 0 1.71.71l1.29-1.3 1.29 1.29a1 1 0 0 0 1.71-.7v-8h2v20h-16z" data-original="#000000" class="active-path" data-old_color="#000000" fill="#3F35CF"/><path d="m21 19h-10a1 1 0 0 0 0 2h10a1 1 0 0 0 0-2z" data-original="#000000" class="active-path" data-old_color="#000000" fill="#3F35CF"/></g></g> </svg>
