<?xml version="1.0"?>
<svg xmlns="http://www.w3.org/2000/svg" id="Capa_1" enable-background="new 0 0 512 512" height="512px" viewBox="0 0 512 512" width="512px"><g><g><path d="m66 70v372c0 38.598 31.402 70 70 70h75c5.523 0 10-4.477 10-10s-4.477-10-10-10h-75c-27.57 0-50-22.43-50-50v-323.077c12.716 12.993 30.428 21.077 50 21.077h50v80c0 3.688 2.03 7.077 5.281 8.817 3.252 1.74 7.197 1.55 10.266-.497l39.453-26.301 39.453 26.302c3.073 2.049 7.018 2.234 10.266.497 3.251-1.74 5.281-5.129 5.281-8.817v-80h130v352h-124.999c-5.523 0-10 4.477-10 10s4.477 10 10 10h134.999c5.523 0 10-4.477 10-10 0-12.762 0-478.542 0-492 0-5.523-4.477-10-10-10h-300c-38.598-.001-70 31.401-70 69.999zm210 131.315-29.453-19.635c-3.358-2.239-7.735-2.239-11.094 0l-29.453 19.635v-121.315h70zm20-121.315h130v40h-130zm130-20h-260c-5.523 0-10 4.477-10 10s4.477 10 10 10h20v40h-50c-27.57 0-50-22.43-50-50s22.43-50 50-50h290z" data-original="#000000" class="active-path" data-old_color="#000000" fill="#3F35CF"/><path d="m166 356h180c5.523 0 10-4.477 10-10s-4.477-10-10-10h-180c-5.523 0-10 4.477-10 10s4.477 10 10 10z" data-original="#000000" class="active-path" data-old_color="#000000" fill="#3F35CF"/><path d="m356 406c0-5.523-4.477-10-10-10h-180c-5.523 0-10 4.477-10 10s4.477 10 10 10h180c5.523 0 10-4.477 10-10z" data-original="#000000" class="active-path" data-old_color="#000000" fill="#3F35CF"/><circle cx="256" cy="502" r="10" data-original="#000000" class="active-path" data-old_color="#000000" fill="#3F35CF"/></g></g> </svg>
