<?xml version="1.0" encoding="iso-8859-1"?>
<!-- Generator: Adobe Illustrator 19.0.0, SVG Export Plug-In . SVG Version: 6.00 Build 0)  -->
<svg version="1.1" id="Capa_1" xmlns="http://www.w3.org/2000/svg" xmlns:xlink="http://www.w3.org/1999/xlink" x="0px" y="0px"
	 viewBox="0 0 512.042 512.042" style="enable-background:new 0 0 512.042 512.042;" xml:space="preserve">
<g transform="translate(1 1)">
	<g>
		<path d="M427.048-0.966C426.602-0.988,426.149-1,425.687-1H84.397C37.244-1-0.979,37.223-0.979,84.376v405.291
			c0,18.329,21.588,28.125,35.381,16.055L191.021,368.68l156.619,137.041c13.794,12.07,35.381,2.274,35.381-16.055V255h106.667
			c11.782,0,21.333-9.551,21.333-21.333V84.333C511.021,37.658,473.549-0.236,427.048-0.966z M340.354,442.653L205.069,324.278
			c-8.043-7.038-20.053-7.038-28.096,0L41.687,442.653V84.376c0-23.589,19.121-42.709,42.709-42.709h267.372
			c-0.307,0.531-0.6,1.07-0.896,1.608c-0.098,0.178-0.2,0.353-0.296,0.532c-0.573,1.06-1.121,2.135-1.649,3.221
			c-0.125,0.257-0.246,0.515-0.368,0.773c-0.462,0.975-0.909,1.958-1.335,2.953c-0.07,0.164-0.145,0.325-0.214,0.49
			c-0.472,1.121-0.916,2.256-1.341,3.4c-0.102,0.274-0.2,0.55-0.299,0.825c-0.376,1.046-0.735,2.1-1.071,3.164
			c-0.045,0.142-0.094,0.282-0.138,0.424c-0.364,1.175-0.697,2.364-1.011,3.561c-0.076,0.291-0.149,0.583-0.222,0.875
			c-0.281,1.12-0.545,2.248-0.781,3.385c-0.023,0.11-0.05,0.218-0.072,0.328c-0.25,1.224-0.465,2.461-0.661,3.704
			c-0.048,0.305-0.094,0.611-0.139,0.917c-0.177,1.204-0.336,2.413-0.462,3.632c-0.006,0.062-0.015,0.123-0.022,0.185
			c-0.128,1.269-0.219,2.549-0.292,3.834c-0.018,0.316-0.033,0.632-0.048,0.949c-0.058,1.296-0.099,2.596-0.099,3.907v149.333
			V442.653z M468.354,212.333h-85.333v-128c0-23.567,19.099-42.667,42.667-42.667s42.667,19.099,42.667,42.667V212.333z"/>
	</g>
</g>
<g>
</g>
<g>
</g>
<g>
</g>
<g>
</g>
<g>
</g>
<g>
</g>
<g>
</g>
<g>
</g>
<g>
</g>
<g>
</g>
<g>
</g>
<g>
</g>
<g>
</g>
<g>
</g>
<g>
</g>
</svg>
