<?xml version="1.0"?>
<svg xmlns="http://www.w3.org/2000/svg" xmlns:xlink="http://www.w3.org/1999/xlink" version="1.1" id="Capa_1" x="0px" y="0px" viewBox="0 0 235.408 235.408" style="enable-background:new 0 0 235.408 235.408;" xml:space="preserve" width="512px" height="512px"><g><g>
	<g>
		<path d="M12.184,223.475c7.098,0,11.525-6.859,11.525-13.957v-1.11h2.649    c0-5.292,26.004-23.034,76.413-26.02c1.398,0.299,2.779,0.647,4.199,0.848c3.628-0.152,7.37-0.234,11.237-0.234    c2.404,0,4.688,0.082,7,0.141c2.176-0.332,4.308-0.81,6.418-1.36c51.698,2.736,78.437,21.403,78.437,26.63h-1.425v1.11    c0,7.098,6.467,13.402,13.565,13.402s13.206-5.472,13.206-12.57c0-25.303-30.742-42.278-69.941-49.528    c14.37-15.713,23.453-38.041,23.453-62.892c0-47.423-32.787-86.002-73.09-86.002S42.746,50.502,42.746,97.93    c0,25.313,9.41,48.016,24.247,63.768C29.605,169.296,0,185.869,0,210.356C0,217.443,5.091,223.475,12.184,223.475z     M115.836,39.118c25.303,0,45.895,26.385,45.895,58.807s-20.592,58.813-45.895,58.813S69.941,130.353,69.941,97.93    S90.528,39.118,115.836,39.118z" data-original="#010002" class="active-path" data-old_color="#010002" fill="#757575"/>
	</g>
</g></g> </svg>
