<?xml version="1.0"?>
<svg xmlns="http://www.w3.org/2000/svg" xmlns:xlink="http://www.w3.org/1999/xlink" version="1.1" id="Capa_1" x="0px" y="0px" viewBox="0 0 262.807 262.807" style="enable-background:new 0 0 262.807 262.807;" xml:space="preserve" width="512px" height="512px"><g><g>
	<g>
		<path d="M175.253,143.753v-20.668c0-1.066-0.626-2.04-1.599-2.475c-0.511-0.234-1.066-0.277-1.599-0.179    c8.882-13.614,15.306-29.681,15.306-45.737c0-40.135-25.422-72.791-56.67-72.791s-56.67,32.656-56.67,72.791    c0,16.072,4.96,32.199,12.298,45.862c-0.587-0.19-1.213-0.234-1.817,0c-1.033,0.413-1.713,1.409-1.713,2.524l0,0v21.506l0,0    c0,0.141,0.06,0.277,0.082,0.413c-30.083,8.142-58.503,23.943-82.075,47.516c-1.061,1.061-1.061,2.785,0,3.845    c1.061,1.061,2.785,1.061,3.845,0c23.47-23.47,51.883-39.02,81.912-46.727l16.888,17.807c-0.011,0.267-0.076,0.511-0.076,0.778    c0,7.212,3.378,13.842,9.132,18.128l-14.631,45.041c-0.315,0.974-0.06,2.04,0.664,2.763l25.955,25.961    c0.511,0.511,1.202,0.794,1.925,0.794c0.723,0,1.414-0.288,1.925-0.794l25.961-25.961c0.723-0.723,0.984-1.795,0.664-2.768    l-14.805-45.373c5.194-4.096,8.257-10.231,8.534-16.861l23.383-20.543c31.568,7.305,61.538,23.198,86.089,47.75    c0.533,0.533,1.229,0.794,1.925,0.794s1.392-0.267,1.925-0.794c1.061-1.061,1.061-2.785,0-3.845    C237.215,167.729,207.067,151.471,175.253,143.753z M165.458,147.185l-17.47,15.354c-0.952-3.66-2.768-6.946-5.254-9.649    l8.844-7.772l5.477-4.814l12.76-11.215v13.478v0.794L165.458,147.185z M88.305,143.584l-0.076-0.082V129.9l10.884,11.476    l4.504,4.748l6.097,6.424c-2.246,2.344-3.932,5.183-5.015,8.316l-12.02-12.673L88.305,143.584z M130.691,7.195    c28.332,0,51.377,30.279,51.377,67.499c0,24.77-16.714,50.317-32.803,64.676c-2.061,1.838-4.112,3.557-6.114,4.998    c-2.225,1.605-4.362,2.861-6.418,3.911c-1.093,0.555-2.148,1.033-3.171,1.425c-2.127,0.8-4.128,1.316-5.863,1.316    c-2.295,0-4.808-0.653-7.435-1.828c-1.082-0.484-2.187-1.071-3.302-1.735c-1.251-0.745-2.518-1.615-3.796-2.573    c-1.849-1.387-3.709-3.008-5.57-4.803c-14.457-13.968-28.283-39.45-28.283-65.388C79.308,37.474,102.359,7.195,130.691,7.195z     M103.55,231.491l13.924-42.865l17.704-0.315l14.093,43.181l-22.86,22.86L103.55,231.491z M141.727,175.278    c-1.343,2.959-3.421,5.575-6.26,7.419c-0.223,0.141-0.402,0.517-0.566,0.522l-0.005,0.016l-17.465-0.016h-0.033    c-0.087,0-0.163-0.196-0.267-0.261c-3.302-2.012-5.629-5.02-6.989-8.436l-3.916-4.134v-0.005l3.916,4.128    c-0.256-0.636-0.598-1.229-0.772-1.893c-0.375-1.414-0.566-2.883-0.566-4.389c0-0.936,0.131-1.838,0.277-2.736    c0.19-1.18,0.484-2.317,0.903-3.405c1.12-2.926,3.019-5.439,5.439-7.354c0.533-0.419,1.071-0.821,1.648-1.18    c3.644,1.724,7.239,2.758,10.622,2.758c2.469,0,5.341-0.751,8.441-2.083c0.37,0.267,0.702,0.571,1.044,0.865    c2.578,2.181,4.487,5.08,5.439,8.409c0.299,1.044,0.49,2.121,0.587,3.231c0.033,0.375,0.103,0.745,0.114,1.126    c0,0.125,0.038,0.239,0.038,0.359C143.359,170.715,142.722,173.081,141.727,175.278l3.998-3.514L141.727,175.278z" data-original="#010002" class="active-path" data-old_color="#010002" fill="#757575"/>
	</g>
</g></g> </svg>
