<?xml version="1.0"?>
<svg xmlns="http://www.w3.org/2000/svg" xmlns:xlink="http://www.w3.org/1999/xlink" version="1.1" id="Capa_1" x="0px" y="0px" viewBox="0 0 429.649 429.649" style="enable-background:new 0 0 429.649 429.649;" xml:space="preserve" width="512px" height="512px"><g><g>
	<g>
		<path d="M402.336,106.678l0.24-0.32c-10.56-24,13.28-42.96,14.32-43.68c3.509-2.685,4.177-7.706,1.492-11.215    c-1.228-1.605-3.019-2.686-5.012-3.025l-86.56-14.8c-33.658-15.901-70.543-23.787-107.76-23.04    c-108.24,0-194.56,86.08-210.4,209.44c-11.68,90.8-14.4,157.04,10.16,184.96c8.145,9.311,20.036,14.478,32.4,14.08    c4.9-0.035,9.781-0.598,14.56-1.68c31.12-6.88,66.08-11.6,99.76-16c129.68-17.6,264-35.76,264-174.08    C430.802,185.453,421.444,143.949,402.336,106.678z M395.776,61.638c-4.43,5.831-7.764,12.418-9.84,19.44    c-4.017-5.065-8.318-9.9-12.88-14.48c-3.84-3.84-8-7.44-12.08-10.96L395.776,61.638z M24.496,222.038l0.08-0.4    c3.176-25.43,9.992-50.271,20.24-73.76c24-1.04,131.44-5.28,168.96,0c17.04,2.96,50.48,19.52,54.96,42.96    c4.48,23.44-19.68,51.68-69.92,80c-35.92,20.32-149.04,43.2-182.64,49.68C17.148,287.564,19.925,254.688,24.496,222.038z     M163.536,384.918c-34.08,4.64-69.28,9.36-101.04,16c-3.647,0.851-7.375,1.307-11.12,1.36c-7.684,0.616-15.237-2.264-20.56-7.84    c-9.6-10.88-13.76-32-14.64-57.52c30.16-5.76,150.72-29.52,190.4-52c57.6-32.64,83.84-65.12,77.84-96.64    c-6.24-33.2-48-52.64-68.56-55.6c-35.84-5.12-128-2.08-163.28-0.64c34.64-64.8,95.52-105.36,166.4-105.36    c59.76,0,109.12,17.76,142.72,51.36c33.6,33.6,52,84.64,51.92,149.04l0.08-0.4C413.696,350.998,292.096,367.478,163.536,384.918z" data-original="#000000" class="active-path" data-old_color="#000000" fill="#757575"/>
	</g>
</g><g>
	<g>
		<path d="M154.336,216.198l-33.84-43.12c-2.318-3.761-7.247-4.931-11.008-2.613s-4.931,7.247-2.613,11.008    c0.303,0.492,0.659,0.95,1.061,1.365l33.76,43.2c2.717,3.49,7.75,4.117,11.24,1.4    C156.426,224.721,157.053,219.689,154.336,216.198z" data-original="#000000" class="active-path" data-old_color="#000000" fill="#757575"/>
	</g>
</g><g>
	<g>
		<path d="M133.056,252.998l-33.84-43.2c-2.214-3.824-7.108-5.129-10.932-2.915c-3.824,2.214-5.129,7.108-2.915,10.932    c0.391,0.675,0.878,1.289,1.446,1.823l33.6,43.2c2.717,3.49,7.75,4.117,11.24,1.4    C135.146,261.521,135.773,256.489,133.056,252.998z" data-original="#000000" class="active-path" data-old_color="#000000" fill="#757575"/>
	</g>
</g></g> </svg>
