<?xml version="1.0"?>
<svg xmlns="http://www.w3.org/2000/svg" id="Layer_1" enable-background="new 0 0 24 24" height="512px" viewBox="0 0 24 24" width="512px"><g><path d="m3.9287109 23h6c1.6542969 0 3-1.3457031 3-3v-4c0-.5522461-.4472656-1-1-1s-1 .4477539-1 1v4c0 .5512695-.4482422 1-1 1h-6c-.5517578 0-1-.4487305-1-1v-16c0-.5512695.4482422-1 1-1h6c.5517578 0 1 .4487305 1 1v4c0 .5522461.4472656 1 1 1s1-.4477539 1-1v-4c0-1.6542969-1.3457031-3-3-3h-6c-1.6542969 0-3 1.3457031-3 3v16c0 1.6542969 1.3457032 3 3 3z" data-original="#000000" class="active-path" data-old_color="#000000" fill="#3F35CF"/><path d="m6.9287109 12c0 .5522461.4472656 1 1 1h11.5859375l-4.2929688 4.2929688c-.390625.390625-.390625 1.0234375 0 1.4140625.1953126.1953125.451172.2929687.7070313.2929687s.5117188-.0976563.7070313-.2929688l5.9993286-5.9993286c.0925293-.0923462.1658325-.203064.2166138-.3258057.1010132-.2442627.1010132-.5195313 0-.7637939-.0507813-.1227417-.1240845-.2334595-.2166138-.3258057l-5.9993286-5.9993286c-.390625-.390625-1.0234375-.390625-1.4140625 0s-.390625 1.0234375 0 1.4140625l4.2929687 4.2929688h-11.5859375c-.5527343 0-1 .4477539-1 1z" data-original="#000000" class="active-path" data-old_color="#000000" fill="#3F35CF"/></g> </svg>
