<?xml version="1.0" encoding="iso-8859-1"?>
<!-- Generator: Adobe Illustrator 19.0.0, SVG Export Plug-In . SVG Version: 6.00 Build 0)  -->
<svg version="1.1" id="Capa_1" xmlns="http://www.w3.org/2000/svg" xmlns:xlink="http://www.w3.org/1999/xlink" x="0px" y="0px"
	 viewBox="0 0 512 512" style="enable-background:new 0 0 512 512;" xml:space="preserve">
<path style="fill:#FFFFFF;" d="M359.03,392.554c20.851,12.105,44.741,25.97,61.859,45.114c-93.535,84.896-236.237,84.896-329.772,0
	c17.118-19.144,41.008-33.009,61.859-45.114c25.597-14.878,47.727-27.73,47.727-43.835c0.395-17.395-7.284-33.996-20.797-44.954
	c-12.212-2.026-18.611-24.957-18.611-37.542c-0.683-5.471,1.253-10.943,5.226-14.771c-8.852-28.743-8.692-68.631,11.412-96.841
	c15.731-22.077,41.648-33.809,74.977-33.916c23.826-7.567,49.876-2.08,68.631,14.452c14.985,13.492,37.755,46.394,23.837,115.986
	c2.88,2.026,5.653,6.239,5.653,15.091c0,12.585-6.399,35.569-18.664,37.542c-13.668,10.868-21.459,27.501-21.064,44.954
	C311.302,364.824,333.433,377.676,359.03,392.554z"/>
<path style="fill:#F54B55;" d="M256.002,10.735C391.484,10.74,501.31,120.572,501.305,256.054
	c0,69.17-29.207,135.124-80.417,181.615c-17.118-19.144-41.008-33.009-61.859-45.114c-25.597-14.878-47.727-27.73-47.727-43.835
	c-0.395-17.454,7.396-34.086,21.064-44.954c12.265-1.973,18.664-24.957,18.664-37.542c0-8.852-2.773-13.065-5.653-15.091
	c13.918-69.591-8.852-102.494-23.837-115.986c-18.755-16.531-44.805-22.019-68.631-14.452
	c-33.329,0.107-59.246,11.839-74.977,33.916c-20.104,28.21-20.264,68.098-11.412,96.841c-3.973,3.829-5.909,9.3-5.226,14.771
	c0,12.585,6.399,35.516,18.611,37.542c13.513,10.959,21.192,27.559,20.797,44.954c0,16.105-22.131,28.956-47.727,43.835
	c-20.851,12.105-44.741,25.97-61.859,45.114C-9.191,346.602-16.683,191.459,74.388,91.152
	C120.883,39.937,186.832,10.735,256.002,10.735z"/>
<g style="opacity:0.08;enable-background:new    ;">
	<path style="fill:#303442;" d="M256.002,448.014c-125.158,0.005-230.243-94.223-243.836-218.639
		c-0.965,8.858-1.456,17.758-1.466,26.663c0,135.476,109.826,245.303,245.303,245.303s245.303-109.826,245.303-245.303
		c-0.011-8.906-0.501-17.806-1.466-26.663C486.246,353.791,381.16,448.019,256.002,448.014z"/>
</g>
<g>
	<path style="fill:#303442;" d="M420.894,448.334c-2.933,0-5.85-1.2-7.956-3.557c-15.982-17.875-38.966-31.217-59.235-42.987
		c-28.503-16.563-53.06-30.839-53.06-53.071c-0.464-20.419,8.916-40.438,25.09-53.305c1.434-1.141,3.136-1.888,4.949-2.181
		c3.045-0.491,9.689-14.334,9.689-27.01c0-5.045-1.173-6.399-1.184-6.41c-3.456-2.432-5.093-6.629-4.266-10.772
		c12.905-64.515-7.316-94.084-20.515-105.971c-15.769-13.897-38.123-18.606-58.27-12.212c-1.035,0.331-2.112,0.496-3.194,0.501
		c-29.735,0.096-52.671,10.276-66.328,29.442c-18.995,26.653-17.209,63.8-9.903,87.514c1.184,3.845,0.107,8.026-2.789,10.815
		c-1.546,1.488-2.309,3.648-2.042,5.775c0.053,0.432,0.08,0.875,0.08,1.312c0,12.606,6.645,26.487,9.689,27.021
		c1.786,0.315,3.568,1.093,4.975,2.24c15.955,12.942,25.202,32.94,24.738,53.476c0,21.992-24.552,36.262-52.985,52.783
		c-20.333,11.807-43.328,25.154-59.315,43.029c-3.925,4.394-10.665,4.767-15.059,0.843c-4.394-3.925-4.767-10.671-0.843-15.059
		c18.248-20.408,42.795-34.657,64.451-47.226c19.902-11.572,42.416-24.653,42.416-34.609c0.304-13.492-5.338-26.429-15.182-35.254
		c-17.752-5.893-24.024-33.473-24.221-46.613c-0.619-6.223,0.891-12.478,4.154-17.72c-7.327-28.418-7.588-69.767,14.457-100.713
		c17.555-24.637,45.893-37.883,82.027-38.379c26.823-7.908,56.302-1.429,77.324,17.107c16.254,14.633,40.992,49.46,28.258,120.71
		c2.725,3.994,4.847,9.839,4.847,18.36c0,12.916-6.213,41.392-24.354,47.279c-9.961,8.756-15.673,21.667-15.379,34.982
		c0.005,10.196,22.525,23.282,42.395,34.833c21.699,12.596,46.24,26.845,64.483,47.242c3.925,4.389,3.546,11.135-0.843,15.059
		C425.96,447.438,423.427,448.334,420.894,448.334z"/>
	<path style="fill:#303442;" d="M255.736,512c-63.672,0-124.678-23.592-171.797-66.445
		C-20.571,350.692-28.426,188.473,66.447,83.952C112.404,33.319,175.33,3.616,243.625,0.31
		c68.322-3.322,133.797,20.184,184.425,66.141c104.526,94.873,112.375,257.088,17.502,361.608
		C397.137,481.407,328.047,512,255.997,512C255.917,512,255.826,512,255.736,512z M256.274,21.331
		c-3.861,0-7.732,0.096-11.615,0.283c-62.611,3.034-120.289,30.263-162.417,76.678C-4.722,194.099,2.471,342.805,98.289,429.771
		c0,0,0.005,0,0.005,0.005c43.184,39.27,99.097,60.894,157.458,60.894c0.08,0,0.16,0,0.24,0c66.056,0,129.392-28.044,173.77-76.945
		c86.97-95.817,79.771-244.519-16.041-331.484C370.186,42.731,314.656,21.331,256.274,21.331z"/>
</g>
<g>
</g>
<g>
</g>
<g>
</g>
<g>
</g>
<g>
</g>
<g>
</g>
<g>
</g>
<g>
</g>
<g>
</g>
<g>
</g>
<g>
</g>
<g>
</g>
<g>
</g>
<g>
</g>
<g>
</g>
</svg>
