<?xml version="1.0"?>
<svg xmlns="http://www.w3.org/2000/svg" xmlns:xlink="http://www.w3.org/1999/xlink" version="1.1" id="Layer_1" x="0px" y="0px" viewBox="0 0 512 512" style="enable-background:new 0 0 512 512;" xml:space="preserve" width="512px" height="512px" class=""><g><g>
	<g>
		<g>
			<path d="M179.47,101.914c1.76,1.081,3.706,1.597,5.632,1.597c3.618,0,7.152-1.822,9.185-5.131     c1.032-1.677,2.129-3.324,3.26-4.892c10.237-14.178,24.463-23.661,41.14-27.424c5.803-1.31,9.444-7.075,8.136-12.877     c-1.311-5.802-7.078-9.446-12.877-8.136c-21.878,4.937-40.504,17.326-53.864,35.829c-1.443,1.998-2.838,4.09-4.145,6.218     C172.821,92.165,174.404,98.798,179.47,101.914z" data-original="#000000" class="active-path" data-old_color="#000000" fill="#808080B3"/>
			<path d="M266.48,64.856c0.044,0.006,0.151,0.021,0.176,0.024c0.467,0.06,0.928,0.089,1.387,0.089     c5.314,0,9.895-3.945,10.614-9.358c0.782-5.879-3.388-11.291-9.267-12.097c-0.179-0.024-0.355-0.046-0.532-0.066     c-5.917-0.625-11.216,3.668-11.838,9.583C256.401,58.906,260.627,64.173,266.48,64.856z" data-original="#000000" class="active-path" data-old_color="#000000" fill="#808080B3"/>
			<path d="M477.421,343.06c-24.938-6.834-51.074-17.918-73.591-31.213c-3.378-1.994-7.572-1.995-10.95,0     c-3.454,2.039-6.921,3.988-10.403,5.871c-18.551-1.1-31.726-6.061-40.95-24.353c22.307-15.171,30.314-27.458,39.293-82.002     c0.56-3.401,1.403-7.8,2.381-12.892c5.367-27.983,13.48-70.272,5.49-97.014c-9.253-30.978-26.81-56.828-50.777-74.755     C314.563,9.235,286.237,0.002,255.999,0c-30.238,0-58.562,9.232-81.914,26.699c-23.967,17.928-41.526,43.777-50.781,74.756     c-7.987,26.734,0.124,69.02,5.491,97.001c0.978,5.099,1.821,9.501,2.382,12.906c9.03,54.841,17.077,66.966,39.661,82.254     c-7.189,13.938-23.255,20.769-47.132,29.948c-21.353,8.209-45.553,17.513-64.549,37.182     c-21.871,22.647-32.502,54.649-32.502,97.835c0,5.948,4.822,10.77,10.77,10.77h218.573h80.129     c4.165,5.519,8.471,10.284,12.587,14.317c17.86,17.5,39.674,28.332,49.639,28.332c9.968,0,31.78-10.833,49.64-28.332     c17.039-16.695,37.35-45.826,37.35-89.808v-40.412C485.345,348.595,482.101,344.342,477.421,343.06z M143.944,107.62     c15.863-53.096,58.8-86.08,112.054-86.08c53.261,0.004,96.198,32.988,112.055,86.081c2.882,9.645,2.935,23.058,1.696,37.119     c-23.512-7.957-36.123-39.86-36.257-40.205c-1.275-3.342-4.126-5.833-7.609-6.647c-3.482-0.812-7.143,0.154-9.768,2.583     c-50.444,46.68-138.744,19.165-139.619,18.885c-4.767-1.536-9.96,0.417-12.537,4.71c-3.803,6.338-13.099,12.648-21.981,17.317     C141.037,128.558,141.292,116.493,143.944,107.62z M152.432,207.863c-0.606-3.683-1.475-8.216-2.481-13.465     c-1.648-8.588-3.686-19.219-5.349-30.333c9.033-4.072,23.313-11.628,32.729-22.1c22.718,5.864,91.819,19.382,142.358-16.687     c7.919,14.053,23.411,35.121,47.352,41.135c-1.594,10.262-3.461,20.014-4.993,27.998c-1.006,5.242-1.874,9.77-2.48,13.451     c-8.945,54.336-14.584,57.923-38.322,73.02c-3.97,2.525-8.457,5.379-13.454,8.759c-17.203,9.87-34.628,14.872-51.795,14.872     c-17.167-0.001-34.59-5.003-51.789-14.868c-4.994-3.38-9.481-6.234-13.449-8.757c-0.34-0.215-0.673-0.429-1.005-0.64     c-0.023-0.014-0.046-0.029-0.069-0.043C166.846,265.669,161.243,261.373,152.432,207.863z M255.999,447.809v0.001H48.448     c3.548-73.595,43.903-89.116,82.987-104.142c22.591-8.685,45.82-17.623,57.54-38.296c1.133,0.75,2.289,1.522,3.473,2.324     l0.66,0.414c20.621,11.906,41.779,17.943,62.887,17.944c0,0,0.002,0,0.003,0c21.106,0,42.266-6.039,62.893-17.948l0.659-0.414     c1.314-0.891,2.59-1.742,3.842-2.568c7.582,14.025,17.243,22.352,27.72,27.281c-10.335,4.121-20.905,7.662-31.822,10.653     c-4.68,1.282-7.924,5.535-7.924,10.388v40.412c0,3.885,0.166,7.648,0.467,11.302h-67.02c-5.948,0-10.77,4.822-10.77,10.77     s4.822,10.77,10.77,10.77h70.648c1.994,7.674,4.613,14.7,7.635,21.109H255.999z M398.355,490.414     c-5.197-1.032-29.718-11.989-47.218-36.913c-0.365-0.68-0.802-1.313-1.299-1.896c-6.822-10.204-12.422-22.641-15.144-37.563     c-0.021-0.121-0.039-0.242-0.065-0.362c-1.105-6.179-1.724-12.775-1.724-19.822v-32.303c19.833-5.968,38.65-13.687,57.008-23.384     c0.018-0.01,0.036-0.019,0.055-0.028c2.806-1.484,5.604-3.01,8.391-4.587c20.601,11.608,42.977,21.177,65.445,27.99v32.312h0.001     C463.805,462.025,406.622,488.772,398.355,490.414z" data-original="#000000" class="active-path" data-old_color="#000000" fill="#808080B3"/>
			<path d="M422.417,382.394l-34.718,34.717l-13.408-13.41c-4.206-4.206-11.025-4.206-15.232,0c-4.205,4.206-4.205,11.025,0,15.232     l21.024,21.024c2.103,2.103,4.859,3.155,7.616,3.155c2.756,0,5.513-1.052,7.614-3.155l42.336-42.333     c4.205-4.206,4.206-11.025,0-15.231C433.444,378.189,426.624,378.189,422.417,382.394z" data-original="#000000" class="active-path" data-old_color="#000000" fill="#808080B3"/>
			<path d="M213.938,405.161h-0.781c-5.948,0-10.77,4.822-10.77,10.77s4.822,10.77,10.77,10.77h0.781     c5.948,0,10.77-4.822,10.77-10.77S219.886,405.161,213.938,405.161z" data-original="#000000" class="active-path" data-old_color="#000000" fill="#808080B3"/>
			<path d="M212.813,212.326c7.341,0,13.33-5.987,13.33-13.33c0-7.343-5.989-13.329-13.33-13.329c-7.343,0-13.33,5.987-13.33,13.329     C199.483,206.339,205.469,212.326,212.813,212.326z" data-original="#000000" class="active-path" data-old_color="#000000" fill="#808080B3"/>
			<path d="M299.194,212.326c7.342,0,13.33-5.987,13.33-13.33c0-7.343-5.987-13.329-13.33-13.329c-7.341,0-13.33,5.987-13.33,13.329     C285.864,206.339,291.852,212.326,299.194,212.326z" data-original="#000000" class="active-path" data-old_color="#000000" fill="#808080B3"/>
		</g>
	</g>
</g></g> </svg>
