<?xml version="1.0"?>
<svg xmlns="http://www.w3.org/2000/svg" id="Outline" viewBox="0 0 512 512" width="512px" height="512px"><g><g id="Wrench-screwdriver"><path d="M140.6,392.2l-13.279-7.522-7.52-13.277a8,8,0,0,0-9.094-3.767L96,371.7l-14.711-4.07a8,8,0,0,0-9.094,3.767l-7.52,13.278L51.4,392.2a8,8,0,0,0-3.766,9.094L51.7,416,47.63,430.71A8,8,0,0,0,51.4,439.8l13.279,7.522,7.52,13.277a8,8,0,0,0,9.094,3.767L96,460.3l14.711,4.07a7.992,7.992,0,0,0,9.094-3.767l7.52-13.278L140.6,439.8a8,8,0,0,0,3.766-9.094L140.3,416l4.069-14.71A8,8,0,0,0,140.6,392.2ZM124.29,418.133l2.995,10.826-9.772,5.536a8,8,0,0,0-3.018,3.018l-5.535,9.772-10.827-3a8,8,0,0,0-4.266,0l-10.827,3-5.535-9.772a8,8,0,0,0-3.018-3.018l-9.772-5.536,2.995-10.826a7.983,7.983,0,0,0,0-4.266l-2.995-10.826,9.772-5.536a8,8,0,0,0,3.018-3.018l5.535-9.772,10.827,3a8,8,0,0,0,4.266,0l10.827-3,5.535,9.772a8,8,0,0,0,3.018,3.018l9.772,5.536-2.995,10.826A7.983,7.983,0,0,0,124.29,418.133Z" data-original="#000000" class="active-path" data-old_color="#000000" fill="#3F35CF"/><path d="M315.314,240,385.4,169.918A79.083,79.083,0,0,0,416,176,80.038,80.038,0,0,0,492.565,72.766a8,8,0,0,0-13.312-3.333l-36.91,36.91a25.941,25.941,0,0,1-36.686-36.686l36.91-36.91a8,8,0,0,0-3.333-13.312A80.013,80.013,0,0,0,339.926,120.76L268,192.686l-18.343-18.343a8,8,0,0,0-11.314,0L212,200.686,81.153,69.839,87.59,50.53a8,8,0,0,0-3.474-9.39l-40-24a8,8,0,0,0-9.773,1.2l-16,16a8,8,0,0,0-1.2,9.773l24,40a7.993,7.993,0,0,0,9.39,3.473l19.309-6.436L200.686,212l-26.343,26.343a8,8,0,0,0,0,11.314L192.686,268l-71.925,71.926A79.983,79.983,0,1,0,169.919,385.4L240,315.314,407.029,482.343a24.029,24.029,0,0,0,33.942,0l41.373-41.373a24.027,24.027,0,0,0,0-33.94ZM51.559,70.381,34.073,41.24l7.167-7.166L70.381,51.558l-4.7,14.117Zm305.046,49.453A64,64,0,0,1,416,32q2.272,0,4.528.158L394.343,58.343a41.941,41.941,0,0,0,59.314,59.314l26.185-26.185Q480,93.726,480,96a64.072,64.072,0,0,1-64,64,63.289,63.289,0,0,1-28.729-6.817,8,8,0,0,0-9.256,1.488l-74.761,74.761a24.1,24.1,0,0,0-22.508,0L267.314,216l6.343-6.343v0l81.182-81.181A8,8,0,0,0,356.605,119.834ZM240,268.686,227.314,256l14.344-14.344L256,227.314,268.686,240ZM191.313,244,244,191.313,256.686,204l-26.343,26.343-20,20h0L204,256.686ZM153.184,387.269A63.306,63.306,0,0,1,160,416a64,64,0,1,1-40.164-59.395,8,8,0,0,0,8.64-1.766L216,267.314l13.432,13.432a24.1,24.1,0,0,0,0,22.508l-74.76,74.76A8,8,0,0,0,153.184,387.269Zm317.845,42.388L448,452.686,297.657,302.343l-11.314,11.314L436.686,464l-7.03,7.03a8.007,8.007,0,0,1-11.312,0L244.971,297.657a8.01,8.01,0,0,1,0-11.314l.686-.686,40-40,.687-.687a8.008,8.008,0,0,1,11.312,0L471.029,418.343A8.01,8.01,0,0,1,471.029,429.657Z" data-original="#000000" class="active-path" data-old_color="#000000" fill="#3F35CF"/></g></g> </svg>
