<?xml version="1.0"?>
<svg xmlns="http://www.w3.org/2000/svg" height="512px" viewBox="0 0 32 32" width="512px"><g><g id="Layer_51" data-name="Layer 51"><path d="m19 14v-7.382a3.977 3.977 0 0 0 .858-1.618h3.142a1 1 0 0 0 0-2h-3.142a3.981 3.981 0 0 0 -7.716 0h-3.142a1 1 0 0 0 0 2h3.142a3.977 3.977 0 0 0 .858 1.618v7.382a5.006 5.006 0 0 0 -5 5v6a1 1 0 0 0 1 1h4v3a3 3 0 0 0 6 0v-3h4a1 1 0 0 0 1-1v-6a5.006 5.006 0 0 0 -5-5zm-3-12a1.991 1.991 0 0 1 1.266 3.535 1.685 1.685 0 0 1 -.217.16c-.016.01-.034.018-.051.028a2.064 2.064 0 0 1 -2 0c-.017-.01-.035-.018-.051-.028a1.685 1.685 0 0 1 -.217-.16 1.991 1.991 0 0 1 1.27-3.535zm-1 5.873c.041.011.083.015.124.024s.111.021.167.031a4.108 4.108 0 0 0 .665.072h.044s.029 0 .044 0a4.108 4.108 0 0 0 .665-.068c.056-.01.112-.019.167-.031s.083-.013.124-.024v6.123h-2zm2 21.127a1 1 0 0 1 -2 0v-8a1 1 0 0 1 2 0zm5-5h-3v-3a3 3 0 0 0 -6 0v3h-3v-5a3 3 0 0 1 3-3h6a3 3 0 0 1 3 3z" data-original="#000000" class="active-path" data-old_color="#000000" fill="#3F35CF"/></g></g> </svg>
