<svg id="Layer_1" enable-background="new 0 0 512 512" height="512" viewBox="0 0 512 512" width="512" xmlns="http://www.w3.org/2000/svg"><g><g><path d="m99.693 153.608c-20.325 30.084-32.193 66.352-32.193 105.392v25h30v-25c0-87.537 70.963-158.5 158.5-158.5 87.537 0 158.5 70.963 158.5 158.5v27h30v-27c0-39.039-11.867-75.306-32.192-105.39 0 0-57.308-75.61-152.975-75.61-112.833 0-159.64 75.608-159.64 75.608z" fill="#ddd"/><path d="m444.5 259v27h-30v-27c0-.89-.01-1.77-.02-2.65-.52-38.03-12.31-73.34-32.17-102.74 0 0-51.81-68.36-139.15-75.08 5.23-.35 10.62-.53 16.17-.53 95.67 0 152.98 75.61 152.98 75.61 20.32 30.08 32.19 66.35 32.19 105.39z" fill="#544f57"/><path d="m34.907 434.59 62.593 13.91 10-92.5-10-92.5-62.593 13.909c-16.013 3.559-27.407 17.762-27.407 34.167v88.848c0 16.404 11.394 30.608 27.407 34.166z" fill="#bc95e2"/><path d="m349.757 422.419 19.743 6.581 18.167-71.333-18.167-74.667-19.743 6.581c-6.125 2.042-10.257 7.774-10.257 14.23v104.377c0 6.457 4.131 12.189 10.257 14.231z" fill="#544f57"/><path d="m162.243 422.419-19.743 6.581-14.167-75.333 14.167-70.667 19.743 6.581c6.125 2.042 10.257 7.774 10.257 14.23v104.377c0 6.457-4.131 12.189-10.257 14.231z" fill="#544f57"/><path d="m120 471.5c-12.426 0-22.5-10.074-22.5-22.5v-186c0-12.426 10.074-22.5 22.5-22.5 12.426 0 22.5 10.074 22.5 22.5v186c0 12.426-10.074 22.5-22.5 22.5z" fill="#ffe183"/><path d="m477.093 434.59-62.593 13.91-10-92.5 10-92.5 62.593 13.909c16.014 3.559 27.407 17.762 27.407 34.167v88.848c0 16.404-11.394 30.608-27.407 34.166z" fill="#bc95e2"/><path d="m504.5 311.58v88.84c0 16.41-11.39 30.61-27.41 34.17l-62.59 13.91-.7-6.51 33.29-7.4c16.02-3.56 27.41-17.76 27.41-34.17v-88.84c0-16.41-11.39-30.61-27.41-34.17l-33.29-7.4.7-6.51 62.59 13.91c16.02 3.56 27.41 17.76 27.41 34.17z" fill="#ac80dd"/><path d="m392 471.5c12.426 0 22.5-10.074 22.5-22.5v-186c0-12.426-10.074-22.5-22.5-22.5-12.426 0-22.5 10.074-22.5 22.5v186c0 12.426 10.074 22.5 22.5 22.5z" fill="#ffe183"/><path d="m417.4 151.48-27.91 22.03c-6.17-9.63-13.36-18.54-21.41-26.59-28.68-28.68-68.31-46.42-112.08-46.42-56.05 0-105.31 29.1-133.49 73.01l-27.91-22.03c-11.13-8.81-12.79-25.17-3.47-35.87 40.06-46.02 99.07-75.11 164.87-75.11 32.9 0 64.1 7.27 92.09 20.3 27.98 13.02 52.75 31.8 72.78 54.81 9.32 10.7 7.66 27.06-3.47 35.87z" fill="#ffe183"/><path d="m417.4 151.48-27.91 22.03c-3.35-5.24-7.01-10.26-10.94-15.05l8.85-6.98c11.13-8.81 12.79-25.17 3.47-35.87-20.03-23.01-44.8-41.79-72.78-54.81-23.7-11.03-49.7-17.94-77.09-19.79 4.95-.34 9.96-.51 15-.51 32.9 0 64.1 7.27 92.09 20.3 27.98 13.02 52.75 31.8 72.78 54.81 9.32 10.7 7.66 27.06-3.47 35.87z" fill="#e7a561"/></g><path d="m478.72 270.088-26.72-5.937v-5.151c0-36.378-9.987-71.709-28.915-102.5 6.358-5.479 10.419-13.306 11.197-21.687.823-8.87-1.931-17.44-7.755-24.13-42.974-49.369-105.129-77.683-170.527-77.683s-127.553 28.314-170.527 77.683c-5.824 6.69-8.578 15.26-7.755 24.13.778 8.378 4.836 16.203 11.198 21.687-18.932 30.794-28.916 66.104-28.916 102.5v5.151l-26.72 5.938c-19.594 4.354-33.28 21.414-33.28 41.487v88.848c0 20.073 13.686 37.133 33.28 41.488l57.258 12.724c2.646 13.856 14.847 24.364 29.462 24.364 16.542 0 30-13.458 30-30v-14.594l14.615-4.872c9.202-3.068 15.385-11.646 15.385-21.346v-104.376c0-9.7-6.183-18.278-15.385-21.346l-14.615-4.872v-14.594c0-16.542-13.458-30-30-30-4.761 0-9.264 1.12-13.266 3.102 11.066-72.435 73.787-128.102 149.266-128.102s138.2 55.667 149.266 128.102c-4.002-1.982-8.505-3.102-13.266-3.102-16.542 0-30 13.458-30 30v14.594l-14.615 4.872c-9.202 3.068-15.385 11.646-15.385 21.346v104.377c0 9.7 6.183 18.278 15.385 21.346l14.615 4.871v14.594c0 16.542 13.458 30 30 30 14.615 0 26.816-10.508 29.461-24.364l57.258-12.724c19.595-4.354 33.28-21.415 33.28-41.488v-88.848c.001-20.073-13.685-37.133-33.279-41.488zm-41.72-9.271-15.019-3.338c-.271-29.93-8.499-57.99-22.672-82.168l11.937-9.42c16.866 28.062 25.754 60.118 25.754 93.109zm-362-1.817c0-33.008 8.886-65.044 25.756-93.108l11.936 9.42c-14.173 24.177-22.402 52.238-22.672 82.168l-15.02 3.337zm84.871 37.696c3.067 1.022 5.129 3.882 5.129 7.115v104.377c0 3.233-2.062 6.093-5.129 7.115l-9.871 3.29v-125.187zm-39.871-48.696c8.271 0 15 6.729 15 15v19.843.027 146.26.027 19.843c0 8.271-6.729 15-15 15s-15-6.729-15-15v-.375c0-.006 0-.013 0-.019v-119.356c0-4.142-3.357-7.5-7.5-7.5s-7.5 3.358-7.5 7.5v109.9l-53.466-11.881c-12.679-2.818-21.534-13.857-21.534-26.845v-88.848c0-12.988 8.855-24.027 21.534-26.845l53.466-11.881v21.4c0 4.142 3.357 7.5 7.5 7.5s7.5-3.358 7.5-7.5v-30.855c0-.006 0-.013 0-.019v-.376c0-8.271 6.729-15 15-15zm136-155c-55.645 0-104.98 27.524-135.115 69.67l-21.631-17.072c-3.808-3.014-6.151-7.336-6.601-12.171-.44-4.748 1.027-9.328 4.134-12.896 40.124-46.094 98.155-72.531 159.213-72.531s119.089 26.437 159.213 72.531c3.106 3.568 4.574 8.148 4.134 12.896-.449 4.835-2.793 9.157-6.593 12.165l-21.639 17.078c-30.135-42.146-79.47-69.67-135.115-69.67zm96.129 322.304c-3.067-1.022-5.129-3.882-5.129-7.115v-104.377c0-3.233 2.062-6.093 5.129-7.115l9.871-3.29v125.188zm144.871-14.88c0 12.988-8.855 24.027-21.534 26.845l-53.466 11.881v-110.15c0-4.142-3.357-7.5-7.5-7.5s-7.5 3.358-7.5 7.5v119.606.019.375c0 8.271-6.729 15-15 15s-15-6.729-15-15v-19.843c0-.009 0-.018 0-.027v-146.26c0-.009 0-.018 0-.027v-19.843c0-8.271 6.729-15 15-15s15 6.729 15 15v.375.019 2.606 28c0 4.142 3.357 7.5 7.5 7.5s7.5-3.358 7.5-7.5v-21.15l53.466 11.881c12.679 2.818 21.534 13.857 21.534 26.845z"/></g></svg>