<?xml version="1.0"?>
<svg xmlns="http://www.w3.org/2000/svg" height="512px" viewBox="0 0 100 100" width="512px"><g><g id="menu" fill="none" fill-rule="evenodd"><path id="Combined-Shape" d="m69.5 62c.8284271 0 1.5.6715729 1.5 1.5s-.6715729 1.5-1.5 1.5h-39c-.8284271 0-1.5-.6715729-1.5-1.5s.6715729-1.5 1.5-1.5zm0-13c.8284271 0 1.5.6715729 1.5 1.5s-.6715729 1.5-1.5 1.5h-39c-.8284271 0-1.5-.6715729-1.5-1.5s.6715729-1.5 1.5-1.5zm0-13c.8284271 0 1.5.6715729 1.5 1.5s-.6715729 1.5-1.5 1.5h-39c-.8284271 0-1.5-.6715729-1.5-1.5s.6715729-1.5 1.5-1.5z" fill="#FFFFFF" data-original="#000000" class="active-path" data-old_color="rgb(0,0,0)"/></g></g> </svg>
